<?xml version="1.0" standalone="no"?>
<!DOCTYPE svg PUBLIC "-//W3C//DTD SVG 20010904//EN"
 "http://www.w3.org/TR/2001/REC-SVG-20010904/DTD/svg10.dtd">
<svg version="1.0" xmlns="http://www.w3.org/2000/svg"
 width="1347.000000pt" height="1010.000000pt" viewBox="0 0 1347.000000 1010.000000"
 preserveAspectRatio="xMidYMid meet">

<g transform="translate(0.000000,1010.000000) scale(0.100000,-0.100000)"
fill="#000000" stroke="none">
<path d="M6575 9933 c-772 -31 -1598 -278 -2267 -676 -493 -294 -909 -649
-1279 -1092 -666 -797 -1063 -1801 -1121 -2831 -15 -283 2 -745 36 -977 102
-674 297 -1233 637 -1820 305 -525 771 -1044 1284 -1429 681 -510 1518 -846
2350 -942 1174 -136 2340 146 3326 804 442 296 875 711 1205 1157 457 617 771
1367 893 2133 43 267 53 393 58 710 4 273 2 342 -16 520 -29 282 -73 536 -128
740 -14 52 -29 111 -33 130 -4 19 -29 100 -55 180 -330 1002 -916 1815 -1765
2447 -362 269 -790 497 -1245 661 -594 215 -1231 312 -1880 285z m688 -339
c214 -21 387 -50 572 -94 858 -207 1545 -585 2177 -1198 695 -674 1158 -1570
1312 -2537 92 -576 71 -1229 -56 -1755 -180 -748 -479 -1350 -952 -1915 -775
-924 -1853 -1495 -3061 -1621 -201 -21 -705 -24 -885 -6 -1290 132 -2416 758
-3216 1787 -193 248 -408 611 -543 917 -267 606 -391 1201 -391 1880 0 621
121 1220 358 1768 244 566 529 990 967 1439 663 679 1539 1134 2495 1296 147
25 399 52 545 59 147 7 524 -4 678 -20z"/>
<path d="M6454 8986 c-38 -17 -82 -72 -90 -113 -8 -39 11 -248 37 -418 124
-817 503 -1584 1065 -2155 l122 -125 -400 -455 c-220 -250 -401 -455 -402
-455 -2 0 -2328 2043 -2611 2293 -158 139 -178 152 -238 154 -90 1 -159 -66
-161 -155 0 -36 6 -63 19 -84 11 -17 506 -458 1100 -979 1518 -1332 1670
-1467 1670 -1475 0 -4 -173 -204 -385 -445 -212 -241 -390 -444 -396 -453 -10
-13 -19 -9 -60 25 -76 63 -237 175 -369 256 -519 321 -1097 514 -1715 573
-171 16 -546 19 -655 5 -63 -8 -73 -12 -107 -48 -59 -64 -63 -150 -11 -213 48
-57 68 -60 316 -53 234 7 348 0 617 -37 482 -68 991 -255 1410 -519 135 -85
342 -238 338 -250 -2 -4 -318 -367 -703 -804 -385 -438 -706 -811 -714 -829
-41 -98 40 -217 148 -217 58 0 86 15 143 76 25 27 344 389 708 804 365 415
665 757 668 760 6 7 154 -151 266 -285 299 -355 520 -748 665 -1183 90 -268
157 -586 176 -827 9 -115 23 -168 52 -199 80 -86 210 -68 261 36 l24 47 -17
158 c-30 290 -74 522 -145 758 -183 610 -507 1165 -941 1610 l-126 130 398
453 c219 249 401 453 404 453 4 0 627 -545 1386 -1213 997 -876 1391 -1217
1419 -1226 55 -19 114 -1 161 48 71 74 62 154 -28 241 -41 40 -2683 2365
-2722 2395 -1 1 176 207 395 456 218 249 399 455 400 457 2 2 25 -14 51 -36
132 -109 403 -285 593 -385 456 -241 952 -390 1476 -443 171 -17 619 -20 676
-5 45 13 105 77 113 123 14 75 -34 157 -106 183 -24 8 -93 10 -239 6 -465 -12
-945 75 -1400 253 -142 55 -419 193 -555 276 -122 74 -351 235 -374 263 -11
13 17 49 196 252 114 131 430 490 701 798 272 309 501 577 509 596 29 66 5
145 -59 193 -38 29 -116 34 -160 11 -24 -13 -276 -292 -738 -819 -386 -440
-705 -801 -709 -803 -9 -3 -208 210 -293 313 -279 341 -500 739 -637 1150 -92
277 -160 608 -177 855 -7 120 -18 161 -50 200 -50 58 -121 76 -190 46z"/>
</g>
</svg>
