<?xml version="1.0" standalone="no"?>
<!DOCTYPE svg PUBLIC "-//W3C//DTD SVG 20010904//EN"
 "http://www.w3.org/TR/2001/REC-SVG-20010904/DTD/svg10.dtd">
<svg version="1.0" xmlns="http://www.w3.org/2000/svg"
 width="1347.000000pt" height="1010.000000pt" viewBox="0 0 1347.000000 1010.000000"
 preserveAspectRatio="xMidYMid meet">

<g transform="translate(0.000000,1010.000000) scale(0.100000,-0.100000)"
fill="#000000" stroke="none">
<path d="M6470 9910 c-1190 -87 -2258 -565 -3104 -1390 -845 -824 -1352 -1894
-1462 -3090 -33 -360 -6 -975 55 -1254 5 -22 17 -81 26 -131 93 -493 313
-1068 583 -1520 223 -374 422 -633 727 -944 633 -645 1373 -1073 2285 -1320
197 -53 525 -108 790 -132 175 -16 646 -16 825 -1 1158 103 2218 591 3034
1395 371 367 657 752 908 1227 58 109 168 347 198 428 7 20 23 62 35 92 128
328 243 788 285 1145 36 302 44 850 16 1075 -6 41 -15 116 -20 167 -38 325
-155 781 -288 1123 -204 524 -458 951 -841 1414 -173 210 -499 519 -752 713
-740 566 -1634 912 -2565 993 -173 15 -589 20 -735 10z m745 -330 c919 -87
1795 -451 2509 -1043 255 -212 580 -561 792 -852 410 -563 703 -1285 809
-1995 60 -396 60 -949 0 -1350 -145 -977 -610 -1891 -1311 -2580 -473 -465
-944 -771 -1571 -1021 -935 -373 -2075 -408 -3048 -92 -560 181 -1046 446
-1525 831 -142 114 -491 467 -621 627 -540 667 -871 1411 -994 2235 -45 297
-58 787 -30 1090 86 933 440 1787 1043 2520 125 151 444 468 607 601 535 438
1084 717 1785 908 245 67 552 112 915 135 101 6 523 -3 640 -14z"/>
<path d="M6738 8977 c-15 -7 -49 -33 -75 -58 l-48 -47 -610 -1671 c-390 -1070
-612 -1665 -616 -1654 -3 10 -14 65 -23 123 -23 139 -77 365 -125 525 -119
397 -354 864 -596 1186 -158 209 -396 472 -457 505 -35 18 -101 18 -137 -1
-41 -20 -79 -70 -87 -110 -13 -72 1 -100 115 -223 359 -391 590 -755 768
-1212 83 -214 160 -492 198 -715 17 -101 45 -359 45 -411 l0 -34 -1081 0
c-1033 1 -1082 0 -1112 -18 -103 -60 -111 -202 -15 -269 l41 -28 1084 -3 1083
-2 0 -24 c0 -48 -32 -315 -51 -431 -117 -701 -441 -1349 -942 -1884 -114 -123
-135 -161 -122 -229 9 -49 31 -79 80 -107 45 -27 87 -31 132 -14 60 22 295
280 465 509 243 328 476 791 591 1175 94 317 153 647 170 955 l2 45 38 0 c20
-1 293 -2 606 -3 l570 -2 -2 -1853 -2 -1853 28 -37 c36 -47 74 -67 130 -67 51
0 115 37 143 84 18 30 19 89 22 1879 l2 1847 610 0 610 0 0 -62 c1 -156 46
-474 99 -703 158 -675 513 -1328 988 -1821 104 -108 142 -126 221 -106 56 15
96 54 113 112 19 63 0 107 -87 203 -222 243 -358 421 -493 647 -231 384 -404
847 -471 1260 -21 130 -50 381 -50 435 l0 35 1080 0 c1192 -1 1113 -5 1163 62
62 84 28 202 -70 244 -27 12 -216 14 -1103 14 l-1070 0 0 24 c0 50 31 313 51
434 76 463 264 945 525 1349 138 213 265 373 431 544 107 110 133 152 133 217
0 70 -64 139 -138 149 -66 9 -91 -4 -180 -90 -263 -256 -536 -635 -722 -1001
-185 -366 -299 -711 -370 -1121 -23 -131 -30 -155 -37 -135 -6 14 -279 765
-608 1670 -644 1771 -629 1732 -711 1766 -40 17 -89 17 -126 1z m-111 -3794
c-2 -2 -236 -2 -520 -1 l-515 3 516 1416 517 1416 3 -1415 c1 -778 1 -1417 -1
-1419z m856 1407 l513 -1405 -520 -3 c-285 -1 -521 0 -523 2 -2 2 -1 640 3
1417 4 778 9 1410 11 1404 2 -5 234 -642 516 -1415z"/>
</g>
</svg>
