<?xml version="1.0" standalone="no"?>
<!DOCTYPE svg PUBLIC "-//W3C//DTD SVG 20010904//EN"
 "http://www.w3.org/TR/2001/REC-SVG-20010904/DTD/svg10.dtd">
<svg version="1.0" xmlns="http://www.w3.org/2000/svg"
 width="1347.000000pt" height="1010.000000pt" viewBox="0 0 1347.000000 1010.000000"
 preserveAspectRatio="xMidYMid meet">

<g transform="translate(0.000000,1010.000000) scale(0.100000,-0.100000)"
fill="#000000" stroke="#f7931e">
<path d="M6655 9963 c-284 -7 -528 -33 -780 -82 -823 -162 -1571 -517 -2225
-1059 -147 -121 -466 -442 -596 -597 -111 -132 -238 -302 -331 -440 -64 -95
-163 -253 -163 -261 0 -2 -11 -21 -23 -42 -84 -133 -240 -469 -331 -711 -146
-386 -262 -904 -290 -1291 -30 -414 -5 -959 60 -1289 173 -880 523 -1623 1078
-2286 128 -153 426 -450 581 -580 430 -361 908 -646 1385 -827 483 -183 851
-269 1375 -319 164 -16 638 -16 815 0 645 57 1238 227 1820 522 337 171 618
355 905 594 956 796 1566 1908 1729 3155 76 580 41 1207 -100 1780 -269 1095
-886 2036 -1794 2736 -736 567 -1685 928 -2585 983 -199 12 -399 18 -530 14z
m618 -338 c815 -82 1629 -401 2280 -892 487 -368 909 -841 1207 -1353 334
-574 543 -1227 606 -1885 22 -234 22 -660 -1 -865 -66 -607 -210 -1108 -468
-1625 -430 -864 -1163 -1597 -2027 -2030 -521 -261 -1096 -426 -1660 -476
-211 -19 -679 -16 -865 5 -434 50 -789 133 -1157 270 -983 369 -1807 1065
-2345 1981 -342 582 -541 1210 -608 1920 -21 210 -16 643 9 880 75 723 352
1482 755 2070 347 508 767 925 1256 1252 470 313 977 532 1522 657 241 55 456
85 798 110 104 8 556 -5 698 -19z"/>
<path d="M6700 9018 c-67 -46 -75 -66 -79 -206 -4 -156 13 -378 45 -577 99
-624 314 -1162 672 -1679 47 -68 69 -107 57 -102 -10 3 -747 340 -1639 748
l-1620 741 -45 -12 c-52 -13 -86 -35 -115 -75 -17 -22 -21 -42 -20 -95 l0 -68
734 -1612 c403 -886 731 -1613 729 -1615 -2 -2 -49 28 -104 68 -415 298 -917
523 -1420 636 -264 59 -598 100 -812 100 -138 0 -170 -9 -217 -59 -24 -25 -30
-42 -34 -91 -4 -52 -1 -66 21 -99 38 -57 72 -68 232 -76 211 -9 377 -24 510
-46 644 -107 1268 -393 1754 -803 46 -39 95 -80 109 -92 l26 -21 -758 -754
c-417 -414 -764 -766 -772 -781 -18 -35 -18 -111 1 -148 27 -52 79 -83 138
-83 29 0 64 6 77 13 14 7 366 353 783 769 748 746 758 756 775 735 9 -12 56
-68 103 -125 361 -435 610 -946 743 -1524 53 -227 86 -508 86 -721 0 -136 19
-184 90 -221 70 -37 137 -26 193 35 39 41 48 87 42 222 -34 746 -216 1363
-579 1960 -119 197 -305 448 -423 571 l-44 46 426 424 c234 233 430 425 434
427 4 1 590 -583 1302 -1299 789 -794 1307 -1307 1326 -1315 94 -40 207 19
220 114 13 100 105 0 -1313 1426 l-1305 1311 431 429 431 429 37 -35 c62 -59
262 -220 360 -291 621 -449 1448 -725 2192 -731 161 -1 166 0 198 24 46 34 62
69 62 133 0 40 -6 63 -23 88 -34 52 -74 66 -195 73 -208 11 -379 27 -507 47
-545 86 -1083 306 -1535 628 -108 77 -314 244 -339 275 -13 16 52 84 745 776
810 810 795 793 780 875 -10 53 -77 121 -129 130 -81 16 -71 25 -882 -780
-729 -723 -761 -753 -779 -737 -31 27 -206 249 -277 352 -199 287 -352 591
-464 924 -122 362 -173 651 -191 1089 -6 148 -9 171 -28 200 -52 76 -148 101
-216 55z m-511 -2344 l1374 -628 -376 -373 c-207 -205 -380 -373 -385 -373 -4
0 -458 453 -1007 1007 -550 554 -995 1004 -990 1001 6 -3 628 -288 1384 -634z
m323 -1549 l57 -61 -374 -374 -374 -374 -24 55 c-13 30 -293 646 -622 1369
-328 723 -600 1321 -603 1329 -5 13 1818 -1813 1940 -1944z"/>
</g>
</svg>
